<?xml version="1.0" encoding="UTF-8" standalone="no"?>
<svg
   xmlns:dc="http://purl.org/dc/elements/1.1/"
   xmlns:cc="http://creativecommons.org/ns#"
   xmlns:rdf="http://www.w3.org/1999/02/22-rdf-syntax-ns#"
   xmlns:svg="http://www.w3.org/2000/svg"
   xmlns="http://www.w3.org/2000/svg"
   xmlns:sodipodi="http://sodipodi.sourceforge.net/DTD/sodipodi-0.dtd"
   xmlns:inkscape="http://www.inkscape.org/namespaces/inkscape"
   version="1.1"
   id="svg62"
   width="59.963177"
   height="56.692913"
   viewBox="0 0 59.963176 56.692913"
   sodipodi:docname="jiu_logo.svg"
   inkscape:version="1.0.1 (3bc2e813f5, 2020-09-07, custom)"
   inkscape:export-filename="/home/alvaro/Desktop/raw/AcheronProject/Yuuk/resources/jiu_logo.png"
   inkscape:export-xdpi="2000"
   inkscape:export-ydpi="2000">
  <metadata
     id="metadata68">
    <rdf:RDF>
      <cc:Work
         rdf:about="">
        <dc:format>image/svg+xml</dc:format>
        <dc:type
           rdf:resource="http://purl.org/dc/dcmitype/StillImage" />
        <dc:title></dc:title>
      </cc:Work>
    </rdf:RDF>
  </metadata>
  <defs
     id="defs66" />
  <sodipodi:namedview
     pagecolor="#ffffff"
     bordercolor="#666666"
     borderopacity="1"
     objecttolerance="10"
     gridtolerance="10"
     guidetolerance="10"
     inkscape:pageopacity="0"
     inkscape:pageshadow="2"
     inkscape:window-width="1366"
     inkscape:window-height="711"
     id="namedview64"
     showgrid="false"
     inkscape:zoom="1.6935207"
     inkscape:cx="129.78123"
     inkscape:cy="96.370151"
     inkscape:window-x="0"
     inkscape:window-y="20"
     inkscape:window-maximized="1"
     inkscape:current-layer="g70" />
  <g
     inkscape:groupmode="layer"
     inkscape:label="Image"
     id="g70"
     transform="translate(-543.76582,-16.609796)">
    <path
       style="fill:#000000;stroke-width:0.181956"
       d="m 543.82526,73.103572 c -0.20149,-0.326012 0.11477,-0.70414 0.86486,-1.034056 1.50982,-0.664072 8.22466,-7.050596 10.37663,-9.86928 1.52875,-2.002375 4.71522,-7.066427 5.82715,-9.260722 0.83026,-1.638423 4.14772,-11.915758 3.91737,-12.135799 -0.0392,-0.03742 -0.52156,0.0055 -1.07198,0.09543 -0.55041,0.0899 -1.81956,0.287358 -2.82032,0.438789 -1.00075,0.151431 -2.02426,0.308768 -2.27445,0.349637 -0.25018,0.04087 -1.06899,0.168417 -1.81956,0.283438 -0.75056,0.115022 -1.73313,0.32564 -2.18347,0.46804 -1.74784,0.552679 -3.91771,0.937894 -4.36046,0.77411 -0.24046,-0.08895 -0.99448,-0.611994 -1.67561,-1.162318 -1.19713,-0.967238 -1.66959,-1.725041 -1.30364,-2.090993 0.0916,-0.09164 1.10506,-0.206571 2.25204,-0.25539 4.87274,-0.207402 8.0722,-0.513176 12.99032,-1.241491 3.22181,-0.477114 2.92248,-0.06856 3.29434,-4.496351 0.063,-0.750569 0.14403,-1.552933 0.18,-1.783032 0.16282,-1.041642 0.35844,-5.471366 0.35117,-7.951614 -0.008,-2.790919 -0.20344,-4.066133 -0.83563,-5.457712 -1.02439,-2.254887 0.13116,-2.793819 3.00267,-1.400414 1.61105,0.781764 2.78242,1.702204 3.59661,2.826163 0.64141,0.885448 0.65097,1.382156 0.0513,2.667293 -0.43386,0.929846 -0.68066,2.305796 -1.2728,7.096284 -0.0557,0.450341 -0.17343,1.310083 -0.26168,1.910538 -0.0883,0.600455 -0.21459,1.583017 -0.28073,2.183472 -0.0661,0.600455 -0.18476,1.501137 -0.26359,2.001516 -0.0788,0.500379 -0.11622,0.938321 -0.0831,0.973206 0.14324,0.150822 5.00698,-1.309848 6.95749,-2.089457 2.6397,-1.055079 3.80746,-1.197382 4.96896,-0.60551 1.26875,0.64653 3.93336,2.490963 4.24838,2.940719 0.55867,0.797615 0.38003,1.179702 -0.95018,2.032346 -1.37862,0.883673 -2.03853,1.583794 -2.66244,2.824672 -0.65213,1.29699 -1.27516,3.798039 -1.72727,6.933878 -0.0938,0.650492 -0.2541,1.755875 -0.35626,2.456406 -0.10216,0.70053 -0.23665,1.683093 -0.29888,2.183472 -0.0622,0.500379 -0.14664,1.11448 -0.18758,1.36467 -0.0409,0.250189 -0.12493,1.355572 -0.18664,2.456406 -0.1254,2.237203 0.16013,4.068965 0.85943,5.513519 1.26122,2.605328 4.72088,4.090691 9.52614,4.089929 3.61901,-5.46e-4 5.26526,-0.55273 7.04535,-2.363019 1.4039,-1.427709 2.37093,-4.432794 3.2453,-10.084809 0.24634,-1.592372 0.38314,-1.89299 0.7903,-1.736745 0.24298,0.09324 0.29392,0.467358 0.30709,2.255476 0.009,1.179031 0.0429,2.430273 0.0761,2.780539 0.0332,0.350265 0.10959,1.210007 0.16981,1.910538 0.18036,2.098214 0.59188,3.666342 1.30375,4.968023 0.83347,1.52405 0.77831,2.228025 -0.25434,3.245974 -0.7104,0.700287 -3.18069,1.964285 -5.07392,2.596225 -3.73375,1.246289 -10.23336,1.336847 -14.37611,0.200299 -3.86985,-1.061677 -5.90671,-2.874477 -7.09102,-6.310993 -0.44147,-1.281035 -0.49216,-1.689738 -0.50384,-4.062682 -0.0136,-2.768264 0.17191,-5.713604 0.44703,-7.096284 0.16465,-0.8275 1.13413,-5.818165 2.18027,-11.223519 0.62989,-3.254653 0.59062,-3.698644 -0.32676,-3.694806 -0.90514,0.0038 -8.42908,1.251299 -8.62576,1.430199 -0.0692,0.0629 -0.30074,0.974102 -0.51465,2.024898 -1.40017,6.878075 -4.22003,13.294104 -7.79401,17.733719 -3.78709,4.704334 -7.48009,7.9943 -13.21838,11.775785 -2.44923,1.614018 -3.8445,2.155902 -4.17484,1.621391 z"
       id="path74"
       sodipodi:nodetypes="sssssssssssssssssssssssssssssssssssssssssssssssssssssssssss" />
  </g>
</svg>
